<svg xmlns="http://www.w3.org/2000/svg" enable-background="new 0 0 47.5 47.5" viewBox="1.25 7.5 45 32.5"><defs><clipPath id="a" clipPathUnits="userSpaceOnUse"><path d="M 0,38 38,38 38,0 0,0 0,38 Z"/></clipPath></defs><g clip-path="url(#a)" transform="matrix(1.25 0 0 -1.25 0 47.5)"><path fill="#dd2e44" d="m 0,0 c 0,-2.209 -1.791,-4 -4,-4 l -28,0 c -2.209,0 -4,1.791 -4,4 l 0,18 c 0,2.209 1.791,4 4,4 l 28,0 c 2.209,0 4,-1.791 4,-4 L 0,0 Z" transform="translate(37 10)"/><path fill="#ffd983" d="M 0,0 0.929,-2.67 3.755,-2.729 1.502,-4.437 2.321,-7.143 0,-5.528 -2.321,-7.143 -1.502,-4.437 -3.755,-2.729 -0.929,-2.67 0,0 Z" transform="translate(8 26.049)"/><path fill="#ffd983" d="M 0,0 0.34,-0.688 1.099,-0.798 0.55,-1.334 0.679,-2.09 0,-1.733 -0.679,-2.09 l 0.13,0.756 -0.55,0.536 0.76,0.11 L 0,0 Z" transform="translate(14 29.472)"/><path fill="#ffd983" d="M 0,0 0.34,-0.688 1.099,-0.798 0.55,-1.334 0.679,-2.09 0,-1.733 -0.679,-2.09 l 0.13,0.756 -0.55,0.536 0.76,0.11 L 0,0 Z" transform="translate(16 25.472)"/><path fill="#ffd983" d="M 0,0 0.34,-0.688 1.099,-0.798 0.55,-1.334 0.679,-2.09 0,-1.733 -0.679,-2.09 l 0.13,0.756 -0.55,0.536 0.76,0.11 L 0,0 Z" transform="translate(16 21.472)"/><path fill="#ffd983" d="M 0,0 0.34,-0.688 1.099,-0.799 0.55,-1.334 0.679,-2.091 0,-1.734 l -0.679,-0.357 0.13,0.757 -0.55,0.535 0.76,0.111 L 0,0 Z" transform="translate(14 17.473)"/></g></svg>