<svg xmlns="http://www.w3.org/2000/svg" enable-background="new 0 0 47.5 47.5" viewBox="0 0 47.5 47.5"><defs><clipPath id="a" clipPathUnits="userSpaceOnUse"><path d="M 0,38 38,38 38,0 0,0 0,38 Z"/></clipPath></defs><g clip-path="url(#a)" transform="matrix(1.25 0 0 -1.25 0 47.5)"><path fill="#dd2e44" d="m 0,0 c 0,-2.209 -1.791,-4 -4,-4 l -8,0 0,26 8,0 c 2.209,0 4,-1.791 4,-4 L 0,0 Z" transform="translate(37 10)"/><path fill="#269" d="m 0,0 c -2.209,0 -4,-1.791 -4,-4 l 0,-18 c 0,-2.209 1.791,-4 4,-4 l 8,0 0,26 -8,0 z" transform="translate(5 32)"/><path fill="#eee" d="M 25,6 13,6 13,32 25,32 25,6 Z"/></g></svg>