<svg xmlns="http://www.w3.org/2000/svg" enable-background="new 0 0 47.5 47.5" viewBox="1.25 7.5 45 32.5"><defs><clipPath id="a" clipPathUnits="userSpaceOnUse"><path d="M 0,38 38,38 38,0 0,0 0,38 Z"/></clipPath></defs><g clip-path="url(#a)" transform="matrix(1.25 0 0 -1.25 0 47.5)"><path fill="#eee" d="m 0,0 c 0,-2.209 -1.791,-4 -4,-4 l -28,0 c -2.209,0 -4,1.791 -4,4 l 0,18 c 0,2.209 1.791,4 4,4 l 28,0 c 2.209,0 4,-1.791 4,-4 L 0,0 Z" transform="translate(37 10)"/><path fill="#003478" d="M 0,0 Z" transform="translate(19 19)"/><path fill="#c60c30" d="m 0,0 c -2.714,1.9 -6.455,1.24 -8.356,-1.474 -0.95,-1.356 -0.621,-3.227 0.737,-4.178 1.357,-0.95 3.227,-0.619 4.178,0.737 0.95,1.356 2.822,1.686 4.177,0.736 C 2.094,-5.129 2.424,-7 1.474,-8.356 3.375,-5.643 2.715,-1.902 0,0" transform="translate(22.441 23.915)"/><path fill="#003478" d="m 0,0 c -1.355,0.95 -3.228,0.62 -4.178,-0.736 -0.95,-1.357 -2.821,-1.687 -4.177,-0.738 -1.358,0.952 -1.687,2.823 -0.737,4.179 -1.902,-2.716 -1.241,-6.456 1.473,-8.356 2.715,-1.902 6.455,-1.242 8.356,1.473 C 1.687,-2.821 1.357,-0.95 0,0" transform="translate(23.178 19.736)"/><path fill="#292f33" d="M 0,0 -1.929,-2.299 -1.163,-2.941 0.766,-0.643 0,0 Z" transform="translate(27.264 13.725)"/><path fill="#292f33" d="M 0,0 0.766,-0.643 2.693,1.654 1.928,2.298 0,0 Z" transform="translate(27.906 14.49)"/><path fill="#292f33" d="M 0,0 -1.928,-2.298 -1.162,-2.941 0.766,-0.644 0,0 Z" transform="translate(28.795 12.438)"/><path fill="#292f33" d="M 0,0 0.766,-0.644 2.695,1.654 1.929,2.297 0,0 Z" transform="translate(29.438 13.205)"/><path fill="#292f33" d="M 0,0 -1.929,-2.298 -1.162,-2.94 0.767,-0.643 0,0 Z" transform="translate(30.327 11.152)"/><path fill="#292f33" d="M 0,0 0.767,-0.643 2.694,1.655 1.929,2.298 0,0 Z" transform="translate(30.97 11.919)"/><path fill="#292f33" d="M 0,0 -0.766,-0.643 1.163,-2.941 1.93,-2.299 0,0 Z" transform="translate(31.736 26.725)"/><path fill="#292f33" d="M 0,0 -1.928,2.299 -2.693,1.656 -0.766,-0.643 0,0 Z" transform="translate(31.094 27.49)"/><path fill="#292f33" d="M 0,0 -4.5,5.362 -3.733,6.005 0.766,0.643 0,0 Z" transform="translate(31.367 22.498)"/><path fill="#292f33" d="M 0,0 -1.928,2.298 -2.693,1.654 -0.766,-0.644 0,0 Z" transform="translate(28.03 24.92)"/><path fill="#292f33" d="M 0,0 -0.766,-0.644 1.163,-2.94 1.93,-2.298 0,0 Z" transform="translate(28.672 24.153)"/><path fill="#292f33" d="M 0,0 -4.499,5.363 -3.734,6.006 0.766,0.644 0,0 Z" transform="translate(11.9 10.782)"/><path fill="#292f33" d="M 0,0 -1.928,2.299 -2.694,1.655 -0.766,-0.643 0,0 Z" transform="translate(8.562 13.204)"/><path fill="#292f33" d="M 0,0 -0.766,-0.644 1.163,-2.941 1.929,-2.299 0,0 Z" transform="translate(9.205 12.438)"/><path fill="#292f33" d="M 0,0 -4.5,5.362 -3.733,6.005 0.766,0.643 0,0 Z" transform="translate(8.835 8.212)"/><path fill="#292f33" d="m 0,0 -4.499,-5.362 -0.767,0.642 4.5,5.363 L 0,0 Z" transform="translate(9.6 29.146)"/><path fill="#292f33" d="M 0,0 -4.5,-5.362 -5.266,-4.72 -0.767,0.643 0,0 Z" transform="translate(11.133 27.86)"/><path fill="#292f33" d="m 0,0 -4.499,-5.362 -0.767,0.643 4.5,5.362 L 0,0 Z" transform="translate(12.664 26.575)"/></g></svg>