<svg xmlns="http://www.w3.org/2000/svg" enable-background="new 0 0 47.5 47.5" viewBox="0 0 47.5 47.5"><defs><clipPath id="a" clipPathUnits="userSpaceOnUse"><path d="M 0,38 38,38 38,0 0,0 0,38 Z"/></clipPath></defs><g clip-path="url(#a)" transform="matrix(1.25 0 0 -1.25 0 47.5)"><path fill="#dd2e44" d="m 0,0 c 0,-2.209 -1.791,-4 -4,-4 l -28,0 c -2.209,0 -4,1.791 -4,4 l 0,18 c 0,2.209 1.791,4 4,4 l 28,0 c 2.209,0 4,-1.791 4,-4 L 0,0 Z" transform="translate(37 10)"/><path fill="#ffcc4d" d="M 37,13 1,13 1,25 37,25 37,13 Z"/><path fill="#ea596e" d="m 0,0 0,-3 c 0,-1.657 1.343,-3 3,-3 1.657,0 3,1.343 3,3 L 6,0 0,0 Z" transform="translate(10 20)"/><path fill="#f4a2b2" d="m 13,18 3,0 0,3 -3,0 0,-3 z"/><path fill="#dd2e44" d="m 13,18 -3,0 0,3 3,0 0,-3 z"/><path fill="#ea596e" d="m 0,0 c 0,-0.829 -1.343,-1.5 -3,-1.5 -1.657,0 -3,0.671 -3,1.5 0,0.829 1.343,1.5 3,1.5 1.657,0 3,-0.671 3,-1.5" transform="translate(16 22.5)"/><path fill="#ffac33" d="m 0,0 c 0,0.414 -1.343,0.75 -3,0.75 -1.657,0 -3,-0.336 -3,-0.75 0,-0.414 1.343,-0.75 3,-0.75 1.657,0 3,0.336 3,0.75" transform="translate(16 23.25)"/><path fill="#99aab5" d="M8 14l1 0 0 7-1 0 0-7zM18 14l-1 0 0 7 1 0 0-7z"/><path fill="#66757f" d="M10 14l-3 0 0 1 3 0 0-1zM19 14l-3 0 0 1 3 0 0-1zM9 21l-1 0 0 1 1 0 0-1zM18 21l-1 0 0 1 1 0 0-1z"/></g></svg>