<svg id="SvgjsSvg1017" width="288" height="288" xmlns="http://www.w3.org/2000/svg" version="1.1" xmlns:xlink="http://www.w3.org/1999/xlink" xmlns:svgjs="http://svgjs.com/svgjs"><defs id="SvgjsDefs1018"></defs><g id="SvgjsG1019" transform="matrix(1,0,0,1,0,0)"><svg xmlns="http://www.w3.org/2000/svg" enable-background="new 0 0 512 512" viewBox="0 0 512 512" width="288" height="288"><path d="M14.114,191.386L185.993,42.963c15.045-12.993,38.757-2.445,38.757,17.738v78.177C381.614,140.674,506,172.113,506,320.771c0,60.001-38.653,119.442-81.38,150.52c-13.333,9.698-32.335-2.474-27.419-18.194c44.281-141.613-21.003-179.209-172.451-181.389v85.855c0,20.215-23.73,30.716-38.757,17.738L14.114,226.863C3.303,217.525,3.288,200.737,14.114,191.386z" fill="#0083b0" class="color000 svgShape"></path></svg></g></svg>