<svg id="SvgjsSvg1037" width="288" height="288" xmlns="http://www.w3.org/2000/svg" version="1.1" xmlns:xlink="http://www.w3.org/1999/xlink" xmlns:svgjs="http://svgjs.com/svgjs"><defs id="SvgjsDefs1038"></defs><g id="SvgjsG1039" transform="matrix(1,0,0,1,0,0)"><svg xmlns="http://www.w3.org/2000/svg" viewBox="0 0 32 32" width="288" height="288"><path fill="#ffffff" d="M12 24.5h-.2c-.3-.1-.4-.4-.3-.7l7.4-17c.1-.3.4-.4.7-.3.3.2.4.5.3.7l-7.4 17c-.1.2-.3.3-.5.3z" class="color4f5266 svgShape"></path><path fill="#ffffff" d="M24.5 25.5c-.1 0-.2 0-.3-.1l-3.9-2.9h-6.8c-.2 0-.5 0-.7-.1-.3-.1-.4-.3-.3-.6.1-.3.3-.4.6-.3.1 0 .3.1.4.1h7c.1 0 .2 0 .3.1L24 24v-2c0-.3.2-.5.5-.5h1c.8 0 1.5-.7 1.5-1.5v-7c0-.8-.7-1.5-1.5-1.5h-7.8c-.3 0-.5-.2-.5-.5s.2-.5.5-.5h7.8c1.4 0 2.5 1.1 2.5 2.5v7c0 1.4-1.1 2.5-2.5 2.5H25V25c0 .2-.1.4-.3.4-.1.1-.1.1-.2.1z" class="color4f5266 svgShape"></path><path fill="#ffffff" d="M22.5 19.5c-.3 0-.5-.2-.5-.5v-4c0-.3-.2-.5-.5-.5h-2c-.3 0-.5.2-.5.5v4c0 .3-.2.5-.5.5s-.5-.2-.5-.5v-4c0-.8.7-1.5 1.5-1.5h2c.8 0 1.5.7 1.5 1.5v4c0 .3-.2.5-.5.5z" class="color4f5266 svgShape"></path><path fill="#ffffff" d="M22 17.5h-3c-.3 0-.5-.2-.5-.5s.2-.5.5-.5h3c.3 0 .5.2.5.5s-.2.5-.5.5zM7.5 23.5c-.1 0-.2 0-.2-.1-.2 0-.3-.2-.3-.4v-2.5h-.5C5.1 20.5 4 19.4 4 18v-7c0-1.4 1.1-2.5 2.5-2.5h12c.3 0 .5.3.5.5s-.2.5-.5.5h-12c-.8 0-1.5.7-1.5 1.5v7c0 .8.7 1.5 1.5 1.5h1c.3 0 .5.2.5.5v2l3.2-2.4c.1-.1.2-.1.3-.1h2c.3 0 .5.2.5.5s-.2.5-.5.5h-1.8l-3.9 2.9c-.1.1-.2.1-.3.1z" class="color4f5266 svgShape"></path><path fill="#ffffff" d="M13.5 12.5h-5c-.3 0-.5-.2-.5-.5s.2-.5.5-.5h5c.3 0 .5.2.5.5s-.2.5-.5.5z" class="color4f5266 svgShape"></path><path fill="#ffffff" d="M13.4 18.5c-.1 0-.2 0-.2-.1-2.4-1.2-4-3.7-4.1-6.3 0-.3.2-.5.5-.5s.5.2.5.5c.1 2.3 1.5 4.4 3.6 5.5.2.1.3.4.2.7-.2.1-.4.2-.5.2z" class="color4f5266 svgShape"></path><path fill="#ffffff" d="M9.5 17.7c-.2 0-.3-.1-.4-.2-.1-.2-.1-.5.2-.7 1.6-1.1 2.6-2.8 2.7-4.8 0-.3.2-.5.5-.5s.5.3.5.5c-.1 2.3-1.3 4.4-3.2 5.6-.1.1-.2.1-.3.1zM11 12.5c-.3 0-.5-.2-.5-.5v-1c0-.3.2-.5.5-.5s.5.2.5.5v1c0 .3-.2.5-.5.5z" class="color4f5266 svgShape"></path></svg></g></svg>