<svg id="SvgjsSvg1076" width="288" height="288" xmlns="http://www.w3.org/2000/svg" version="1.1" xmlns:xlink="http://www.w3.org/1999/xlink" xmlns:svgjs="http://svgjs.com/svgjs"><defs id="SvgjsDefs1077"></defs><g id="SvgjsG1078" transform="matrix(1,0,0,1,0,0)"><svg xmlns="http://www.w3.org/2000/svg" width="288" height="288" viewBox="0 0 61 55"><g fill="#0198ba" fill-rule="evenodd" class="color000 svgShape"><path d="M10.971 54.248c-1.219 0-2.438-.305-3.047-1.22-.914-.914-1.524-2.133-1.524-3.352V44.8c0-.914-.61-1.524-1.524-1.524h-.305C2.133 43.276 0 41.143 0 38.705V4.57C0 2.133 1.829 0 4.571 0h51.81c2.438 0 4.571 2.133 4.571 4.571v34.134c0 2.438-2.133 4.571-4.571 4.571h-32c-.305 0-.914.305-1.22.305l-9.142 9.143c-.61.914-1.829 1.524-3.048 1.524zm-6.4-51.2c-.914 0-1.523.61-1.523 1.523v34.134c0 .914.61 1.524 1.523 1.524h.305c2.438 0 4.572 2.133 4.572 4.571v4.876c0 .61.304.914.61 1.22.609.609 1.218.914 2.132 0l9.143-9.144c.915-.914 2.134-1.219 3.353-1.219h32c.914 0 1.524-.61 1.524-1.523V4.57c-.305-.914-1.22-1.523-1.829-1.523H4.571z" fill="#0198ba" class="color000 svgShape"></path><path d="M35.352 13.714H15.238c-.914 0-1.524-.61-1.524-1.524s.61-1.523 1.524-1.523h20.42c.913 0 1.523.61 1.523 1.523 0 .915-.914 1.524-1.829 1.524zM40.533 19.81H15.238c-.914 0-1.524-.61-1.524-1.524 0-.915.61-1.524 1.524-1.524h25.295c.915 0 1.524.61 1.524 1.524s-.61 1.524-1.524 1.524zM45.714 25.905H15.238c-.914 0-1.524-.61-1.524-1.524s.61-1.524 1.524-1.524h30.476c.915 0 1.524.61 1.524 1.524s-.914 1.524-1.524 1.524zM30.476 32H15.238c-.914 0-1.524-.61-1.524-1.524s.61-1.524 1.524-1.524h15.238c.914 0 1.524.61 1.524 1.524S31.086 32 30.476 32z" fill="#0198ba" class="color000 svgShape"></path></g></svg></g></svg>