<svg id="SvgjsSvg1021" width="288" height="288" xmlns="http://www.w3.org/2000/svg" version="1.1" xmlns:xlink="http://www.w3.org/1999/xlink" xmlns:svgjs="http://svgjs.com/svgjs"><defs id="SvgjsDefs1022"></defs><g id="SvgjsG1023" transform="matrix(1,0,0,1,0,0)"><svg xmlns="http://www.w3.org/2000/svg" data-name="Layer 1" viewBox="0 0 48 48" width="288" height="288"><path d="M38.53,9.47A7.05,7.05,0,0,0,32,5H12a7,7,0,0,0-7,7V25a7,7,0,0,0,5,6.7,7.43,7.43,0,0,0,1,.23V38a1,1,0,0,0,.62.92A.84.84,0,0,0,12,39a1,1,0,0,0,.71-.29L15.44,36,16,36H28.59l6.7,6.71A1,1,0,0,0,36,43a.84.84,0,0,0,.38-.08A1,1,0,0,0,37,42V35.93A7,7,0,0,0,43,29V16A7.05,7.05,0,0,0,38.53,9.47ZM37,25a5,5,0,0,1-5,5H19a1,1,0,0,0-.71.29l-4,4L13,35.59V31a1,1,0,0,0-1-1,4.72,4.72,0,0,1-1.45-.22A5,5,0,0,1,7,25V12a5,5,0,0,1,5-5H32a5,5,0,0,1,5,5Z" fill="#ffffff" class="color000 svgShape"></path><path d="M32 13H12a1 1 0 0 0 0 2H32a1 1 0 0 0 0-2zM32 18H12a1 1 0 0 0 0 2H32a1 1 0 0 0 0-2zM32 23H12a1 1 0 0 0 0 2H32a1 1 0 0 0 0-2z" fill="#ffffff" class="color000 svgShape"></path></svg></g></svg>