<svg id="SvgjsSvg1011" width="288" height="288" xmlns="http://www.w3.org/2000/svg" version="1.1" xmlns:xlink="http://www.w3.org/1999/xlink" xmlns:svgjs="http://svgjs.com/svgjs"><defs id="SvgjsDefs1012"></defs><g id="SvgjsG1013" transform="matrix(1,0,0,1,0,0)"><svg xmlns="http://www.w3.org/2000/svg" width="288" height="288" viewBox="0 0 32 32"><path d="M30 10h-4s-1.156 0-2-2c-.43-1.018-.896-2-2-2h-8c-1.104 0-1.584.976-2 2-.812 2-2 2-2 2H8a2 2 0 0 0-2-2H4a2 2 0 0 0-2 2 2 2 0 0 0-2 2v4h11.11c1.386-2.382 3.936-4 6.89-4s5.504 1.618 6.89 4H32v-4a2 2 0 0 0-2-2zM7 14H3a1 1 0 0 1 0-2h4a1 1 0 0 1 0 2zm5 6a6 6 1080 1 0 12 0 6 6 1080 1 0-12 0zm14 0a8 8 0 0 1-16 0c0-.694.116-1.358.282-2H0v10a2 2 0 0 0 2 2h28a2 2 0 0 0 2-2V18h-6.282c.166.642.282 1.306.282 2z" fill="#ffffff" class="color000 svgShape"></path></svg></g></svg>