<svg id="SvgjsSvg1001" width="288" height="288" xmlns="http://www.w3.org/2000/svg" version="1.1" xmlns:xlink="http://www.w3.org/1999/xlink" xmlns:svgjs="http://svgjs.com/svgjs"><defs id="SvgjsDefs1002"></defs><g id="SvgjsG1008" transform="matrix(1,0,0,1,0,0)"><svg xmlns="http://www.w3.org/2000/svg" viewBox="0 0 24 24" width="288" height="288"><path d="M4,12a1,1,0,0,0,1,1h7.59l-2.3,2.29a1,1,0,0,0,0,1.42,1,1,0,0,0,1.42,0l4-4a1,1,0,0,0,.21-.33,1,1,0,0,0,0-.76,1,1,0,0,0-.21-.33l-4-4a1,1,0,1,0-1.42,1.42L12.59,11H5A1,1,0,0,0,4,12ZM17,2H7A3,3,0,0,0,4,5V8A1,1,0,0,0,6,8V5A1,1,0,0,1,7,4H17a1,1,0,0,1,1,1V19a1,1,0,0,1-1,1H7a1,1,0,0,1-1-1V16a1,1,0,0,0-2,0v3a3,3,0,0,0,3,3H17a3,3,0,0,0,3-3V5A3,3,0,0,0,17,2Z" fill="#ffffff" class="color000 svgShape"></path></svg></g></svg>