<svg id="SvgjsSvg1071" width="288" height="288" xmlns="http://www.w3.org/2000/svg" version="1.1" xmlns:xlink="http://www.w3.org/1999/xlink" xmlns:svgjs="http://svgjs.com/svgjs"><defs id="SvgjsDefs1072"></defs><g id="SvgjsG1073" transform="matrix(1,0,0,1,0,0)"><svg xmlns="http://www.w3.org/2000/svg" width="288" height="288" viewBox="0 0 24 24"><path d="M16.3 19.5h-13c-1.6 0-2.9-1.3-2.9-2.9V7.5c0-1.6 1.3-2.9 2.9-2.9h13c1.6 0 3 1.3 3 2.9v1.2L22.8 6c.2-.1.4-.1.5-.1.2.1.3.3.3.4v11.2c0 .2-.1.4-.3.4-.2.1-.4.1-.5-.1l-3.5-2.7v1.2c0 1.8-1.3 3.2-3 3.2zM3.4 5.5c-1.1 0-1.9.9-1.9 1.9v9.1c0 1.1.9 1.9 1.9 1.9h13c1.1 0 2-.9 2-1.9v-2.2c0-.2.1-.4.3-.4.2-.1.4-.1.5.1l3.5 2.7V7.4l-3.5 2.7c-.2.1-.4.1-.5.1-.2-.1-.3-.3-.3-.4V7.5c0-1.1-.9-1.9-2-1.9h-13z" fill="#ffffff" class="color000 svgShape"></path></svg></g></svg>