<svg id="SvgjsSvg1011" width="288" height="288" xmlns="http://www.w3.org/2000/svg" version="1.1" xmlns:xlink="http://www.w3.org/1999/xlink" xmlns:svgjs="http://svgjs.com/svgjs"><defs id="SvgjsDefs1012"></defs><g id="SvgjsG1013" transform="matrix(1,0,0,1,0,0)"><svg xmlns="http://www.w3.org/2000/svg" width="288" height="288" viewBox="0 0 100 100"><path d="M84.9 26.4L68 37.3V34c0-4.4-3.6-8-8-8H20c-4.4 0-8 3.6-8 8v32c0 4.4 3.6 8 8 8h40c4.4 0 8-3.6 8-8v-3.3l16.9 10.9c1.9 1 3.1-.7 3.1-1.7V28c0-1-1.1-2.8-3.1-1.6zM64 66c0 2.2-1.8 4-4 4H20c-2.2 0-4-1.8-4-4V34c0-2.2 1.8-4 4-4h40c2.2 0 4 1.8 4 4v32zm20 2.3L68 58V42l16-10.3v36.6z" fill="#0198ba" class="color000 svgShape"></path><path fill="#0198ba" d="M1224-650v1684H-560V-650h1784m8-8H-568v1700h1800V-658z" class="color00F svgShape"></path></svg></g></svg>